<svg xmlns="http://www.w3.org/2000/svg" viewBox="0 0 64 64">
  <circle cx="32" cy="32" r="31" fill="#c9962e"/>
  <circle cx="32" cy="32" r="27.5" fill="#14213d"/>
  <circle cx="32" cy="32" r="21" fill="none" stroke="#c9962e" stroke-width="1.5"/>
  <path d="M32 25 C28.5 22.5 22.5 22 19 23 V39 C22.5 38 28.5 38.5 32 41 C35.5 38.5 41.5 38 45 39 V23 C41.5 22 35.5 22.5 32 25 Z" fill="none" stroke="#e7c267" stroke-width="2.2" stroke-linejoin="round"/>
  <line x1="32" y1="25" x2="32" y2="41" stroke="#e7c267" stroke-width="2.2"/>
  <path d="M32 14.5 L33.3 17.8 L36.8 17.8 L34 19.9 L35.1 23.3 L32 21.2 L28.9 23.3 L30 19.9 L27.2 17.8 L30.7 17.8 Z" fill="#e7c267"/>
</svg>
